<svg xmlns="http://www.w3.org/2000/svg" viewBox="0 0 432.77 98.47"><defs><style>.cls-1{fill:#ec2226;}.cls-2{fill:#fff;}</style></defs><title>Asset 31</title><g id="Layer_2" data-name="Layer 2"><g id="Layer_1-2" data-name="Layer 1"><path d="M152.07,71.35a15.17,15.17,0,0,1-8.63,2.31c-8.64,0-13.67-4.42-13.67-13.12v-15h-5.64V37.35h5.64V28.44h10.61v8.91h9.11v8.16h-9.11V60.4c0,3.13,1.7,4.83,4.55,4.83a7.19,7.19,0,0,0,4.29-1.36Z"/><path d="M195.46,52.17V73.11H184.85V53.8c0-5.91-2.72-8.63-7.41-8.63-5.1,0-8.77,3.13-8.77,9.86V73.11H158.06V36.53h10.13v4.29c2.86-3.13,7.14-4.83,12.1-4.83C188.93,36,195.46,41,195.46,52.17Z"/><path d="M244.89,54.82c0,11.49-7.95,18.84-18.22,18.84-4.9,0-8.84-1.57-11.49-4.76v4.21H205.05V22.66h10.6V40.41c2.72-3,6.46-4.42,11-4.42C236.94,36,244.89,43.33,244.89,54.82Zm-10.74,0c0-6.32-4-10.13-9.32-10.13s-9.31,3.81-9.31,10.13,4,10.13,9.31,10.13S234.15,61.15,234.15,54.82Z"/><path d="M249.72,49.32c0-14.35,11-24.62,25.84-24.62,8.23,0,15.09,3,19.58,8.43l-7.07,6.53a15.32,15.32,0,0,0-12-5.57c-8.9,0-15.23,6.25-15.23,15.23s6.33,15.23,15.23,15.23a15.18,15.18,0,0,0,12-5.65l7.07,6.53c-4.49,5.51-11.35,8.5-19.65,8.5C260.74,73.93,249.72,63.66,249.72,49.32Z"/><path d="M324.52,36v9.79c-.89-.07-1.57-.14-2.38-.14-5.85,0-9.72,3.2-9.72,10.2V73.11H301.81V36.53h10.13v4.83C314.52,37.83,318.88,36,324.52,36Z"/><path d="M327.79,54.82c0-11,8.5-18.83,20.12-18.83S368,43.81,368,54.82s-8.43,18.84-20.06,18.84S327.79,65.84,327.79,54.82Zm29.44,0c0-6.32-4-10.13-9.32-10.13s-9.38,3.81-9.38,10.13S342.61,65,347.91,65,357.23,61.15,357.23,54.82Z"/><path d="M432.77,36.53,419.51,73.11h-10.2L401.09,50.4l-8.5,22.71h-10.2L369.2,36.53h10l8.64,24.75,9-24.75h9l8.7,24.75,8.91-24.75Z"/><circle class="cls-1" cx="49.23" cy="49.23" r="49.23"/><path class="cls-2" d="M78.3,52.76a2.11,2.11,0,0,0,0-.25c.92,1.43,2,2.88,2,2.88-.22-5-3-11-3.8-12.45a2.17,2.17,0,0,1-.07-.24c.45.39,2.07,1.65,3.82.89-2.94-1.21-6.94-9.45-8.24-12.26a9.34,9.34,0,0,1,2.26,1.12c-3.45-5.71-6.64-8.6-8.46-9.91a.16.16,0,0,0-.08-.06c-.7-.58-1.46-1.15-2.29-1.72-11.38-7.77-23-.57-24-.17.09-.1-1.15-1.27-6.31-2.87l-1-.31c-7-1.93-10.37,1.33-11.7,3.32,2.29-1.19,4.94-.87,7.62.2,4.08,1.63,8.23,5,11.24,7.48a4.65,4.65,0,0,1,1.63,4.35,4.49,4.49,0,0,1-2.73,3.56L24.32,41.68a73.74,73.74,0,0,1,9.56.32c5,.51,9.73,2.34,13.19,6.14a14.31,14.31,0,0,1,3.44,10A20.46,20.46,0,0,0,45,50.81a12.12,12.12,0,0,0-1-.76A242,242,0,0,0,20.74,70.28a35.42,35.42,0,0,0,50.77,6.48.24.24,0,0,1,0,.12,12.3,12.3,0,0,0,.22,3.22,53.86,53.86,0,0,0,4.12-7.51c1.9-4.33,2.19-7.2,2.1-8.86,0-.13,0-.27.07-.41l1.33,4.47c1.26-3.7-.36-11.91-1-15A0,0,0,0,0,78.3,52.76Zm-28-23.94A2.15,2.15,0,0,1,48,26.88a2.22,2.22,0,0,1,2.25-2,2,2,0,1,1,0,4Z"/><path class="cls-2" d="M37.87,32.84c-.42,1.45-1.9,2.27-3.21,2.79-4.42,1.8-7.82,3.29-12.25,5.09,3.41-3,5.8-5.61,9.21-8.57.33-.28.69-.68.57-1.1a1.11,1.11,0,0,0-.44-.54c-3.11-2.48-5.1-4.15-8.21-6.63A6.15,6.15,0,0,0,22.06,23a2.06,2.06,0,0,0-1.75,0c2.16-2,4.77-1.42,7-.26a49.19,49.19,0,0,1,8.26,5.87C36.87,29.64,38.44,30.92,37.87,32.84Z"/></g></g></svg>